<?xml version="1.0" encoding="UTF-8" standalone="no"?>
<!DOCTYPE svg PUBLIC "-//W3C//DTD SVG 1.1//EN"
        "http://www.w3.org/Graphics/SVG/1.1/DTD/svg11.dtd">
<!-- Generated by graphviz version 2.38.0 (20140413.2041)
 -->
<!-- Title: %3 Pages: 1 -->
<svg width="209pt" height="470pt"
     viewBox="0.00 0.00 209.00 470.00" xmlns="http://www.w3.org/2000/svg">
    <g id="graph0" class="graph" transform="scale(1 1) rotate(0) translate(4 466)">
        <title>%3</title>
        <polygon fill="white" stroke="none" points="-4,4 -4,-466 205,-466 205,4 -4,4"/>
        <text text-anchor="middle" x="100.5" y="-26" font-family="Times New Roman,serif" font-size="15.00">Algorytm
            Prima
        </text>
        <text text-anchor="middle" x="100.5" y="-9" font-family="Times New Roman,serif" font-size="15.00">Minimalne
            drzewo rozpinające
        </text>
        <!-- A -->
        <g id="node1" class="node">
            <title>A</title>
            <ellipse fill="none" stroke="black" cx="76.5" cy="-444" rx="27" ry="18"/>
            <text text-anchor="middle" x="76.5" y="-440.3" font-family="Times New Roman,serif" font-size="14.00">A
            </text>
        </g>
        <!-- B -->
        <g id="node2" class="node">
            <title>B</title>
            <ellipse fill="none" stroke="black" cx="108.5" cy="-357" rx="27" ry="18"/>
            <text text-anchor="middle" x="108.5" y="-353.3" font-family="Times New Roman,serif" font-size="14.00">B
            </text>
        </g>
        <!-- A&#45;&gt;B -->
        <g id="edge1" class="edge">
            <title>A&#45;&gt;B</title>
            <path fill="none" stroke="Green" d="M82.8222,-426.207C88.4322,-411.305 96.5849,-389.649 102.191,-374.758"/>
            <text text-anchor="middle" x="97" y="-396.8" font-family="Times New Roman,serif" font-size="14.00">1</text>
        </g>
        <!-- C -->
        <g id="node3" class="node">
            <title>C</title>
            <ellipse fill="none" stroke="black" cx="111.5" cy="-270" rx="27" ry="18"/>
            <text text-anchor="middle" x="111.5" y="-266.3" font-family="Times New Roman,serif" font-size="14.00">C
            </text>
        </g>
        <!-- A&#45;&gt;C -->
        <g id="edge2" class="edge">
            <title>A&#45;&gt;C</title>
            <path fill="none" stroke="Green"
                  d="M70.7686,-426.401C64.4605,-405.542 56.3495,-368.858 65.5,-339 71.8063,-318.423 86.6773,-298.462 97.8152,-285.549"/>
            <text text-anchor="middle" x="69" y="-353.3" font-family="Times New Roman,serif" font-size="14.00">2</text>
        </g>
        <!-- D -->
        <g id="node4" class="node">
            <title>D</title>
            <ellipse fill="none" stroke="black" cx="166.5" cy="-183" rx="27" ry="18"/>
            <text text-anchor="middle" x="166.5" y="-179.3" font-family="Times New Roman,serif" font-size="14.00">D
            </text>
        </g>
        <!-- A&#45;&gt;D -->
        <g id="edge3" class="edge">
            <title>A&#45;&gt;D</title>
            <path fill="none" stroke="Green"
                  d="M93.8772,-430.074C109.392,-417.629 131.598,-397.433 144.5,-375 176.489,-319.379 170.786,-297.99 175.5,-234 175.99,-227.351 176.337,-225.614 175.5,-219 174.744,-213.025 173.289,-206.609 171.766,-200.923"/>
            <text text-anchor="middle" x="173" y="-309.8" font-family="Times New Roman,serif" font-size="14.00">3</text>
        </g>
        <!-- E -->
        <g id="node5" class="node">
            <title>E</title>
            <ellipse fill="none" stroke="black" cx="81.5" cy="-96" rx="27" ry="18"/>
            <text text-anchor="middle" x="81.5" y="-92.3" font-family="Times New Roman,serif" font-size="14.00">E</text>
        </g>
        <!-- A&#45;&gt;E -->
        <g id="edge4" class="edge">
            <title>A&#45;&gt;E</title>
            <path fill="none" stroke="Green"
                  d="M57.6454,-431.093C37.2158,-416.56 7.5,-389.932 7.5,-358 7.5,-358 7.5,-358 7.5,-182 7.5,-148.934 39.7497,-122.482 61.6694,-108.322"/>
            <text text-anchor="middle" x="11" y="-266.3" font-family="Times New Roman,serif" font-size="14.00">4</text>
        </g>
        <!-- B&#45;&gt;C -->
        <g id="edge5" class="edge">
            <title>B&#45;&gt;C</title>
            <path fill="none" stroke="black" d="M109.107,-338.799C109.628,-324.052 110.374,-302.915 110.894,-288.175"/>
            <text text-anchor="middle" x="113" y="-309.8" font-family="Times New Roman,serif" font-size="14.00">5</text>
        </g>
        <!-- B&#45;&gt;D -->
        <g id="edge6" class="edge">
            <title>B&#45;&gt;D</title>
            <path fill="none" stroke="black"
                  d="M119.593,-340.273C128.464,-326.955 140.533,-307.044 147.5,-288 158.283,-258.525 163.138,-222.023 165.173,-201.034"/>
            <text text-anchor="middle" x="160" y="-266.3" font-family="Times New Roman,serif" font-size="14.00">6</text>
        </g>
        <!-- B&#45;&gt;E -->
        <g id="edge7" class="edge">
            <title>B&#45;&gt;E</title>
            <path fill="none" stroke="black"
                  d="M98.3194,-340.279C90.3401,-326.965 79.8795,-307.055 75.5,-288 61.0465,-225.112 72.019,-147.531 78.1251,-113.885"/>
            <text text-anchor="middle" x="72" y="-222.8" font-family="Times New Roman,serif" font-size="14.00">7</text>
        </g>
        <!-- C&#45;&gt;D -->
        <g id="edge8" class="edge">
            <title>C&#45;&gt;D</title>
            <path fill="none" stroke="black" d="M121.845,-253.012C131.678,-237.815 146.384,-215.089 156.201,-199.916"/>
            <text text-anchor="middle" x="145" y="-222.8" font-family="Times New Roman,serif" font-size="14.00">8</text>
        </g>
        <!-- C&#45;&gt;E -->
        <g id="edge9" class="edge">
            <title>C&#45;&gt;E</title>
            <path fill="none" stroke="black" d="M108.514,-251.879C102.763,-218.91 90.215,-146.966 84.4741,-114.052"/>
            <text text-anchor="middle" x="102" y="-179.3" font-family="Times New Roman,serif" font-size="14.00">9</text>
        </g>
        <!-- D&#45;&gt;E -->
        <g id="edge10" class="edge">
            <title>D&#45;&gt;E</title>
            <path fill="none" stroke="black"
                  d="M153.177,-166.772C144.182,-156.68 131.913,-143.273 120.5,-132 113.121,-124.712 104.58,-116.974 97.3756,-110.632"/>
            <text text-anchor="middle" x="141.5" y="-135.8" font-family="Times New Roman,serif" font-size="14.00">10
            </text>
        </g>
    </g>
</svg>
